<?xml version="1.0" encoding="utf-8"?>
<svg id="master-artboard" viewBox="0 0 1400 980" version="1.1" xmlns="http://www.w3.org/2000/svg" x="0px" y="0px" width="1400px" height="980px" enable-background="new 0 0 1400 980">
<g transform="matrix(1, 0, 0, 1, 1.4210854715202004e-14, 0)">
		<g>
			<path d="M 0 0 H 1400 V 980 H 0 V 0 Z" fill="#FFFFFF"/>
		</g>
	</g><path d="M 833.9000244140625 851.7000122070312 L 587.4000244140625 851.7000122070312 L 599.0999755859375 799.7000122070312 L 817.5 799.7000122070312 Z" fill="#F1F2F2" transform="matrix(1, 0, 0, 1, 2.842170943040401e-14, 0)"/><g transform="matrix(1, 0, 0, 1, 2.842170943040401e-14, 0)">
			<path d="M955.4,891.3H426.3c-19.1,0-34.7-15.6-34.7-34.7c0-0.5,0.1-0.9,0.3-1.3l74.4-145.6c0.5-1,1.5-1.6,2.6-1.6h443.9&#10;&#9;&#9;&#9;&#9;c1.1,0,2.1,0.6,2.6,1.6l74.4,145.6c0.2,0.4,0.3,0.9,0.3,1.3C990.1,875.7,974.5,891.3,955.4,891.3z M397.4,857.3&#10;&#9;&#9;&#9;&#9;c0.4,15.6,13.2,28.1,28.8,28.1h529.1c15.7,0,28.4-12.6,28.8-28.1L911,714H470.7L397.4,857.3z"/>
		</g><path fill="#F1F2F2" d="M911.6,711.1V448c0-20.7-16.7-37.4-37.4-37.4H507.9c-20.7,0-37.4,16.7-37.4,37.4v263H911.6z" transform="matrix(1, 0, 0, 1, 4.263256414560601e-14, 0)"/><path d="M911.6,714H470.5c-1.6,0-2.9-1.3-2.9-2.9V448c0-22.2,18.1-40.3,40.3-40.3h366.3c22.2,0,40.3,18.1,40.3,40.3v263&#10;&#9;&#9;&#9;&#9;C914.6,712.7,913.3,714,911.6,714z M473.5,708.1h435.3V448c0-19-15.5-34.5-34.5-34.5H507.9c-19,0-34.5,15.5-34.5,34.5V708.1z" transform="matrix(1, 0, 0, 1, 4.263256414560601e-14, 0)"/><path d="M 502.399994 438.299988 H 879.299988 V 711.099976 H 502.399994 V 438.299988 Z" fill="#FF7269" transform="matrix(1, 0, 0, 1, 4.263256414560601e-14, 0)" style="fill: rgb(71, 142, 209);"/><path d="M879.3,714H502.4c-1.6,0-2.9-1.3-2.9-2.9V438.3c0-1.6,1.3-2.9,2.9-2.9h376.9c1.6,0,2.9,1.3,2.9,2.9v272.8&#10;&#9;&#9;&#9;&#9;C882.2,712.7,880.9,714,879.3,714z M505.3,708.1h371.1V441.2H505.3V708.1z" transform="matrix(1, 0, 0, 1, 4.263256414560601e-14, 0)"/><path fill="#FFFFFF" d="M798,574.7c0,59.2-48,107.2-107.2,107.2s-107.2-48-107.2-107.2c0-59.2,48-107.2,107.2-107.2&#10;&#9;&#9;&#9;&#9;S798,515.5,798,574.7z" transform="matrix(1, 0, 0, 1, 4.263256414560601e-14, 0)"/><path d="M690.8,684.8c-60.7,0-110.1-49.4-110.1-110.1c0-60.7,49.4-110.1,110.1-110.1c60.7,0,110.1,49.4,110.1,110.1&#10;&#9;&#9;&#9;&#9;C800.9,635.4,751.5,684.8,690.8,684.8z M690.8,470.4c-57.5,0-104.2,46.8-104.2,104.2s46.8,104.2,104.2,104.2&#10;&#9;&#9;&#9;&#9;c57.5,0,104.2-46.8,104.2-104.2S748.3,470.4,690.8,470.4z" transform="matrix(1, 0, 0, 1, 4.263256414560601e-14, 0)"/><path d="M 647.4000244140625 514.7999877929688 L 751.2000122070312 574.7000122070312 L 647.4000244140625 634.5999755859375 Z" fill="#F1F2F2" transform="matrix(1, 0, 0, 1, 4.263256414560601e-14, 0)"/><path d="M647.4,637.5c-0.5,0-1-0.1-1.5-0.4c-0.9-0.5-1.5-1.5-1.5-2.5V514.8c0-1,0.6-2,1.5-2.5c0.9-0.5,2-0.5,2.9,0l103.8,59.9&#10;&#9;&#9;&#9;&#9;c0.9,0.5,1.5,1.5,1.5,2.5s-0.6,2-1.5,2.5l-103.8,59.9C648.4,637.4,647.9,637.5,647.4,637.5z M650.3,519.8v109.7l95-54.8&#10;&#9;&#9;&#9;&#9;L650.3,519.8z" transform="matrix(1, 0, 0, 1, 4.263256414560601e-14, 0)"/><path d="M858.6,854.7H523c-1.6,0-2.9-1.3-2.9-2.9c0-1.6,1.3-2.9,2.9-2.9h335.6c1.6,0,2.9,1.3,2.9,2.9&#10;&#9;&#9;&#9;&#9;C861.6,853.3,860.3,854.7,858.6,854.7z" transform="matrix(1, 0, 0, 1, 4.263256414560601e-14, 0)"/><path d="M763.6,802.6h-145c-1.6,0-2.9-1.3-2.9-2.9c0-1.6,1.3-2.9,2.9-2.9h145c1.6,0,2.9,1.3,2.9,2.9&#10;&#9;&#9;&#9;&#9;C766.5,801.3,765.2,802.6,763.6,802.6z" transform="matrix(1, 0, 0, 1, 4.263256414560601e-14, 0)"/><path d="M636.8,866.3c-0.1,0-0.3,0-0.4,0c-1.6-0.2-2.7-1.7-2.5-3.3l10.1-77.2c0.2-1.6,1.7-2.8,3.3-2.5c1.6,0.2,2.7,1.7,2.5,3.3&#10;&#9;&#9;&#9;&#9;l-10.1,77.2C639.5,865.3,638.2,866.3,636.8,866.3z" transform="matrix(1, 0, 0, 1, 4.263256414560601e-14, 0)"/><path d="M761.8,866.3c-1.4,0-2.7-1.1-2.9-2.5l-10.1-77.2c-0.2-1.6,0.9-3.1,2.5-3.3c1.5-0.2,3.1,0.9,3.3,2.5l10.1,77.2&#10;&#9;&#9;&#9;&#9;c0.2,1.6-0.9,3.1-2.5,3.3C762,866.3,761.9,866.3,761.8,866.3z" transform="matrix(1, 0, 0, 1, 4.263256414560601e-14, 0)"/><path d="M756.7,737.2H457c-1.6,0-2.9-1.3-2.9-2.9s1.3-2.9,2.9-2.9h299.7c1.6,0,2.9,1.3,2.9,2.9S758.4,737.2,756.7,737.2z" transform="matrix(1, 0, 0, 1, 4.263256414560601e-14, 0)"/><path d="M823.8,737.2h-36.4c-1.6,0-2.9-1.3-2.9-2.9s1.3-2.9,2.9-2.9h36.4c1.6,0,2.9,1.3,2.9,2.9S825.4,737.2,823.8,737.2z" transform="matrix(1, 0, 0, 1, 4.263256414560601e-14, 0)"/><path d="M548.5,764.1H443.3c-1.6,0-2.9-1.3-2.9-2.9c0-1.6,1.3-2.9,2.9-2.9h105.2c1.6,0,2.9,1.3,2.9,2.9&#10;&#9;&#9;&#9;&#9;C551.4,762.8,550.1,764.1,548.5,764.1z" transform="matrix(1, 0, 0, 1, 4.263256414560601e-14, 0)"/><path d="M564.8,413.6c-1.6,0-2.9-1.3-2.9-2.9V338H365.3c-1.6,0-2.9-1.3-2.9-2.9c0-1.6,1.3-2.9,2.9-2.9h199.5&#10;&#9;&#9;&#9;c1.6,0,2.9,1.3,2.9,2.9v75.5C567.8,412.2,566.5,413.6,564.8,413.6z" transform="matrix(1, 0, 0, 1, 2.842170943040401e-14, 0)"/><path d="M645.1,413.6c-1.6,0-2.9-1.3-2.9-2.9V175.3H440.9c-1.6,0-2.9-1.3-2.9-2.9c0-1.6,1.3-2.9,2.9-2.9h204.1&#10;&#9;&#9;&#9;c1.6,0,2.9,1.3,2.9,2.9v238.3C648,412.2,646.7,413.6,645.1,413.6z" transform="matrix(1, 0, 0, 1, 2.842170943040401e-14, 0)"/><path d="M817.3,413.6c-1.6,0-2.9-1.3-2.9-2.9V294.2c0-1.6,1.3-2.9,2.9-2.9h256.1c1.6,0,2.9,1.3,2.9,2.9c0,1.6-1.3,2.9-2.9,2.9&#10;&#9;&#9;&#9;H820.2v113.5C820.2,412.2,818.9,413.6,817.3,413.6z" transform="matrix(1, 0, 0, 1, 2.842170943040401e-14, 0)"/><path d="M737.1,413.6c-1.6,0-2.9-1.3-2.9-2.9V190.9c0-1.6,1.3-2.9,2.9-2.9h134.4c1.6,0,2.9,1.3,2.9,2.9c0,1.6-1.3,2.9-2.9,2.9H740&#10;&#9;&#9;&#9;v216.8C740,412.2,738.7,413.6,737.1,413.6z" transform="matrix(1, 0, 0, 1, 2.842170943040401e-14, 0)"/><path d="M470.5,577.6H308.8c-1.6,0-2.9-1.3-2.9-2.9s1.3-2.9,2.9-2.9h161.7c1.6,0,2.9,1.3,2.9,2.9S472.1,577.6,470.5,577.6z" transform="matrix(1, 0, 0, 1, 2.842170943040401e-14, 0)"/><path d="M1073.4,577.6H911.6c-1.6,0-2.9-1.3-2.9-2.9s1.3-2.9,2.9-2.9h161.8c1.6,0,2.9,1.3,2.9,2.9S1075,577.6,1073.4,577.6z" transform="matrix(1, 0, 0, 1, 2.842170943040401e-14, 0)"/><path fill="#FF7269" d="M1298.6,381.2c0,14.1-11.5,25.6-25.6,25.6h-174c-14.1,0-25.6-11.5-25.6-25.6v-174&#10;&#9;&#9;&#9;c0-14.1,11.5-25.6,25.6-25.6h174c14.1,0,25.6,11.5,25.6,25.6V381.2z" transform="matrix(1, 0, 0, 1, 2.842170943040401e-14, 0)" style="fill: rgb(71, 142, 209);"/><path d="M1273,409.7h-174c-15.7,0-28.5-12.8-28.5-28.5v-174c0-15.7,12.8-28.5,28.5-28.5h174c15.7,0,28.5,12.8,28.5,28.5v174&#10;&#9;&#9;&#9;C1301.5,396.9,1288.7,409.7,1273,409.7z M1099,184.5c-12.5,0-22.7,10.2-22.7,22.7v174c0,12.5,10.2,22.7,22.7,22.7h174&#10;&#9;&#9;&#9;c12.5,0,22.7-10.2,22.7-22.7v-174c0-12.5-10.2-22.7-22.7-22.7H1099z" transform="matrix(1, 0, 0, 1, 2.842170943040401e-14, 0)"/><path fill="#FF7269" d="M978.6,216.6c8.1-12.5,12.8-27.4,12.8-43.4c0-44.1-35.7-79.9-79.8-79.9s-79.8,35.7-79.8,79.9&#10;&#9;&#9;&#9;c0,16,4.7,30.9,12.9,43.4l67,116L978.6,216.6z" transform="matrix(1, 0, 0, 1, 2.842170943040401e-14, 0)" style="fill: rgb(71, 142, 209);"/><path d="M911.6,335.6c-1,0-2-0.6-2.5-1.5l-67-116c-8.6-13.3-13.3-28.8-13.3-44.9c0-45.6,37.1-82.8,82.8-82.8&#10;&#9;&#9;&#9;c45.6,0,82.7,37.1,82.7,82.8c0,16-4.6,31.6-13.3,45l-66.9,115.9C913.7,335,912.7,335.6,911.6,335.6z M911.6,96.3&#10;&#9;&#9;&#9;c-42.4,0-76.9,34.5-76.9,76.9c0,14.9,4.3,29.4,12.4,41.8l64.5,111.7l64.4-111.6c8.2-12.6,12.5-27.1,12.5-41.9&#10;&#9;&#9;&#9;C988.5,130.8,954,96.3,911.6,96.3z" transform="matrix(1, 0, 0, 1, 2.842170943040401e-14, 0)"/><path fill="#FFFFFF" d="M954.1,175.1c0,23.5-19,42.5-42.5,42.5c-23.5,0-42.5-19-42.5-42.5c0-23.5,19-42.5,42.5-42.5&#10;&#9;&#9;&#9;C935.1,132.6,954.1,151.6,954.1,175.1z" transform="matrix(1, 0, 0, 1, 2.842170943040401e-14, 0)"/><path d="M911.6,220.4c-25,0-45.4-20.4-45.4-45.4c0-25,20.4-45.4,45.4-45.4c25,0,45.4,20.4,45.4,45.4&#10;&#9;&#9;&#9;C957,200.1,936.7,220.4,911.6,220.4z M911.6,135.5c-21.8,0-39.6,17.7-39.6,39.5c0,21.8,17.7,39.5,39.6,39.5&#10;&#9;&#9;&#9;c21.8,0,39.5-17.7,39.5-39.5C951.2,153.3,933.4,135.5,911.6,135.5z" transform="matrix(1, 0, 0, 1, 2.842170943040401e-14, 0)"/><g transform="matrix(1, 0, 0, 1, 2.842170943040401e-14, 0)">
			<path fill="#FFFFFF" d="M1219.7,266c0,18.6-15.1,33.7-33.7,33.7s-33.7-15.1-33.7-33.7c0-18.6,15.1-33.7,33.7-33.7&#10;&#9;&#9;&#9;&#9;S1219.7,247.4,1219.7,266z"/>
			<path d="M1186,302.6c-20.2,0-36.6-16.4-36.6-36.6c0-20.2,16.4-36.6,36.6-36.6c20.2,0,36.6,16.4,36.6,36.6&#10;&#9;&#9;&#9;&#9;C1222.6,286.2,1206.2,302.6,1186,302.6z M1186,235.3c-17,0-30.8,13.8-30.8,30.8c0,17,13.8,30.8,30.8,30.8&#10;&#9;&#9;&#9;&#9;c17,0,30.8-13.8,30.8-30.8C1216.8,249.1,1203,235.3,1186,235.3z"/>
		</g><path fill="#FFFFFF" d="M1245.1,318.7l-41.5-11c-5.4,2.3-11.4,3.6-17.6,3.6c-6.2,0-12.2-1.3-17.6-3.6l-41.5,11&#10;&#9;&#9;&#9;&#9;c0,0-22.4,7.5-22.4,30.6v57.4h163.1v-57.4C1267.5,326.2,1245.1,318.7,1245.1,318.7z" transform="matrix(1, 0, 0, 1, 4.263256414560601e-14, 0)"/><path d="M1267.5,409.7h-163.1c-1.6,0-2.9-1.3-2.9-2.9v-57.4c0-25,24.2-33.3,24.4-33.4l41.7-11.1c0.6-0.2,1.3-0.1,1.9,0.1&#10;&#9;&#9;&#9;&#9;c10.4,4.4,22.4,4.4,32.9,0c0.6-0.2,1.3-0.3,1.9-0.1l41.5,11c0.4,0.1,24.6,8.5,24.6,33.5v57.4&#10;&#9;&#9;&#9;&#9;C1270.4,408.4,1269.1,409.7,1267.5,409.7z M1107.4,403.8h157.2v-54.5c0-20.8-20.2-27.8-20.4-27.9l-40.4-10.7&#10;&#9;&#9;&#9;&#9;c-11.3,4.5-24.3,4.5-35.6,0l-40.6,10.8c-0.7,0.2-20.2,7.1-20.2,27.8V403.8z" transform="matrix(1, 0, 0, 1, 4.263256414560601e-14, 0)"/><path d="M1186,409.7c-1.6,0-2.9-1.3-2.9-2.9v-62.6c0-1.6,1.3-2.9,2.9-2.9s2.9,1.3,2.9,2.9v62.6&#10;&#9;&#9;&#9;&#9;C1188.9,408.4,1187.6,409.7,1186,409.7z" transform="matrix(1, 0, 0, 1, 4.263256414560601e-14, 0)"/><path d="M1242.8,365.8h-31.9c-1.6,0-2.9-1.3-2.9-2.9c0-1.6,1.3-2.9,2.9-2.9h31.9c1.6,0,2.9,1.3,2.9,2.9&#10;&#9;&#9;&#9;&#9;C1245.7,364.5,1244.4,365.8,1242.8,365.8z" transform="matrix(1, 0, 0, 1, 4.263256414560601e-14, 0)"/><g transform="matrix(1, 0, 0, 1, 2.842170943040401e-14, 0)">
			<path d="M 1173.0999755859375 523 L 1112.5999755859375 478 L 998.2000122070312 478 L 998.2000122070312 523 L 998.2000122070312 729.7000122070312 L 1306.4000244140625 729.7000122070312 L 1306.4000244140625 523 Z" fill="#FFFFFF"/>
			<path d="M1306.4,732.6H998.2c-1.6,0-2.9-1.3-2.9-2.9V478c0-1.6,1.3-2.9,2.9-2.9h114.4c0.6,0,1.2,0.2,1.7,0.6l59.8,44.4h132.3&#10;&#9;&#9;&#9;&#9;c1.6,0,2.9,1.3,2.9,2.9v206.7C1309.3,731.3,1308,732.6,1306.4,732.6z M1001.1,726.8h302.3V525.9h-130.3c-0.6,0-1.2-0.2-1.7-0.6&#10;&#9;&#9;&#9;&#9;l-59.8-44.4h-110.5V726.8z"/>
		</g><path d="M1057.3,535.1c-10.8,0-19.5-8.8-19.5-19.5v-49.8c0-1.6,1.3-2.9,2.9-2.9s2.9,1.3,2.9,2.9v49.8c0,7.5,6.1,13.7,13.7,13.7&#10;&#9;&#9;&#9;&#9;s13.7-6.1,13.7-13.7v-49.8c0-1.6,1.3-2.9,2.9-2.9s2.9,1.3,2.9,2.9v49.8C1076.8,526.4,1068.1,535.1,1057.3,535.1z" transform="matrix(1, 0, 0, 1, 4.263256414560601e-14, 0)"/><path d="M 1267.800049 575.799988 L 1177.900024 575.799988" fill="#FFFFFF" transform="matrix(1, 0, 0, 1, 4.263256414560601e-14, 0)"/><path d="M1267.8,578.7h-89.9c-1.6,0-2.9-1.3-2.9-2.9s1.3-2.9,2.9-2.9h89.9c1.6,0,2.9,1.3,2.9,2.9S1269.4,578.7,1267.8,578.7z" transform="matrix(1, 0, 0, 1, 4.263256414560601e-14, 0)"/><path d="M 1267.800049 609.099976 L 1177.900024 609.099976" fill="#FFFFFF" transform="matrix(1, 0, 0, 1, 4.263256414560601e-14, 0)"/><path d="M1267.8,612h-89.9c-1.6,0-2.9-1.3-2.9-2.9c0-1.6,1.3-2.9,2.9-2.9h89.9c1.6,0,2.9,1.3,2.9,2.9&#10;&#9;&#9;&#9;&#9;C1270.7,610.7,1269.4,612,1267.8,612z" transform="matrix(1, 0, 0, 1, 4.263256414560601e-14, 0)"/><path d="M 1175.300049 642.400024 H 1267.800049 V 673.100025 H 1175.300049 V 642.400024 Z" fill="#FF7269" transform="matrix(1, 0, 0, 1, 4.263256414560601e-14, 0)" style="fill: rgb(71, 142, 209);"/><path d="M1267.8,676h-92.5c-1.6,0-2.9-1.3-2.9-2.9v-30.7c0-1.6,1.3-2.9,2.9-2.9h92.5c1.6,0,2.9,1.3,2.9,2.9V673&#10;&#9;&#9;&#9;&#9;C1270.7,674.7,1269.4,676,1267.8,676z M1178.2,670.1h86.6v-24.8h-86.6V670.1z" transform="matrix(1, 0, 0, 1, 4.263256414560601e-14, 0)"/><path d="M 1089.0999755859375 703.7999877929688 L 1128.800048828125 603.7999877929688 L 1028.800048828125 643.5 L 1062.699951171875 655.4000244140625 L 1028.199951171875 689.9000244140625 L 1042.699951171875 704.5 L 1077.199951171875 669.9000244140625 Z" fill="#FFFFFF" transform="matrix(1, 0, 0, 1, 4.263256414560601e-14, 0)"/><path d="M1042.7,707.4c-0.7,0-1.5-0.3-2.1-0.9l-14.5-14.5c-1.1-1.1-1.1-3,0-4.1l31.2-31.2l-29.5-10.3c-1.2-0.4-1.9-1.5-2-2.7&#10;&#9;&#9;&#9;&#9;c0-1.2,0.7-2.3,1.8-2.8l100-39.7c1.1-0.4,2.3-0.2,3.1,0.7c0.8,0.8,1.1,2.1,0.7,3.1l-39.7,100c-0.5,1.1-1.7,1.9-2.8,1.8&#10;&#9;&#9;&#9;&#9;c-1.2,0-2.3-0.8-2.7-2l-10.3-29.5l-31.2,31.2C1044.2,707.1,1043.5,707.4,1042.7,707.4z M1032.3,689.9l10.4,10.4l32.4-32.4&#10;&#9;&#9;&#9;&#9;c0.7-0.7,1.7-1,2.7-0.8c1,0.2,1.8,0.9,2.1,1.9l9.3,26.5l34.3-86.4l-86.4,34.3l26.5,9.3c0.9,0.3,1.7,1.1,1.9,2.1&#10;&#9;&#9;&#9;&#9;c0.2,1-0.1,2-0.8,2.7L1032.3,689.9z" transform="matrix(1, 0, 0, 1, 4.263256414560601e-14, 0)"/><path fill="#FFFFFF" d="M582.1,251.2c-36.9-19.7-50.2-48.8-55.7-60.1c2.3-9.4,3.7-19.1,3.7-29.2C530.1,95,475.9,40.8,409,40.8&#10;&#9;&#9;&#9;c-66.9,0-121.1,54.2-121.1,121.1c0,66.9,54.2,121.1,121.1,121.1c32.9,0,62.6-13.1,84.4-34.4C533.4,270.1,582.1,251.2,582.1,251.2z&#10;&#9;&#9;&#9;" transform="matrix(1, 0, 0, 1, 2.842170943040401e-14, 0)"/><path d="M409,286c-68.4,0-124-55.6-124-124s55.6-124,124-124c68.4,0,124,55.6,124,124c0,9.4-1.2,19.1-3.5,28.9&#10;&#9;&#9;&#9;c5.7,11.8,18.9,39.1,54,57.9c1,0.5,1.6,1.6,1.5,2.8c-0.1,1.1-0.8,2.1-1.9,2.6c-0.8,0.3-20.6,7.9-45.5,7.9c0,0,0,0,0,0&#10;&#9;&#9;&#9;c-16.3,0-31-3.2-43.7-9.6C470.8,274,440.7,286,409,286z M409,43.7c-65.2,0-118.2,53-118.2,118.2c0,65.2,53,118.2,118.2,118.2&#10;&#9;&#9;&#9;c30.9,0,60.2-11.9,82.4-33.5c0.9-0.9,2.3-1.1,3.4-0.5c12.3,6.6,26.7,9.9,42.8,9.9h0c15.8,0,29.7-3.2,37.3-5.5&#10;&#9;&#9;&#9;c-32.4-19.5-45.1-45.7-50.7-57.3l-0.4-0.9c-0.3-0.6-0.4-1.3-0.2-2c2.4-9.7,3.6-19.2,3.6-28.5C527.2,96.8,474.2,43.7,409,43.7z" transform="matrix(1, 0, 0, 1, 2.842170943040401e-14, 0)"/><g transform="matrix(1, 0, 0, 1, 2.842170943040401e-14, 0)">
			<g>
				<path d="M 403.29998779296875 248.6999969482422 L 277 332.3999938964844 L 250.10000610351562 350.29998779296875 L 223.1999969482422 332.3999938964844 L 96.9000015258789 248.6999969482422 Z" fill="#FFFFFF"/>
				<path d="M250.1,353.2c-0.6,0-1.1-0.2-1.6-0.5L95.3,251.2c-1.1-0.7-1.6-2-1.2-3.3c0.4-1.2,1.5-2.1,2.8-2.1h306.4&#10;&#9;&#9;&#9;&#9;&#9;c1.3,0,2.4,0.8,2.8,2.1c0.4,1.2-0.1,2.6-1.2,3.3L251.7,352.7C251.2,353.1,250.7,353.2,250.1,353.2z M106.6,251.7l143.5,95.1&#10;&#9;&#9;&#9;&#9;&#9;l143.5-95.1H106.6z"/>
			</g>
			<g>
				<path d="M 277 332.3999938964844 L 250.10000610351562 350.29998779296875 L 223.1999969482422 332.3999938964844 L 96.9000015258789 248.6999969482422 L 96.9000015258789 416.1000061035156 L 403.29998779296875 416.1000061035156 L 403.29998779296875 248.6999969482422 Z" fill="#F1F2F2"/>
				<path d="M403.3,419.1H96.9c-1.6,0-2.9-1.3-2.9-2.9V248.7c0-1.1,0.6-2.1,1.5-2.6c0.9-0.5,2.1-0.5,3,0.1l151.6,100.5l151.6-100.5&#10;&#9;&#9;&#9;&#9;&#9;c0.9-0.6,2-0.7,3-0.1c0.9,0.5,1.5,1.5,1.5,2.6v167.4C406.2,417.8,404.9,419.1,403.3,419.1z M99.8,413.2h300.6v-159l-148.7,98.6&#10;&#9;&#9;&#9;&#9;&#9;c-1,0.7-2.3,0.7-3.2,0L99.8,254.2V413.2z"/>
			</g>
		</g><path d="M287.4,373.3h-74.5c-1.6,0-2.9-1.3-2.9-2.9c0-1.6,1.3-2.9,2.9-2.9h74.5c1.6,0,2.9,1.3,2.9,2.9&#10;&#9;&#9;&#9;&#9;C290.3,372,289,373.3,287.4,373.3z" transform="matrix(1, 0, 0, 1, 4.263256414560601e-14, 0)"/><path d="M287.4,397.1h-74.5c-1.6,0-2.9-1.3-2.9-2.9c0-1.6,1.3-2.9,2.9-2.9h74.5c1.6,0,2.9,1.3,2.9,2.9&#10;&#9;&#9;&#9;&#9;C290.3,395.8,289,397.1,287.4,397.1z" transform="matrix(1, 0, 0, 1, 4.263256414560601e-14, 0)"/><path d="M1204,891.3h-194.1c-1.6,0-2.9-1.3-2.9-2.9c0-1.6,1.3-2.9,2.9-2.9H1204c1.6,0,2.9,1.3,2.9,2.9&#10;&#9;&#9;&#9;C1206.9,890,1205.6,891.3,1204,891.3z" transform="matrix(1, 0, 0, 1, 2.842170943040401e-14, 0)"/><path d="M1087,854.7h-65.3c-1.6,0-2.9-1.3-2.9-2.9c0-1.6,1.3-2.9,2.9-2.9h65.3c1.6,0,2.9,1.3,2.9,2.9&#10;&#9;&#9;&#9;C1089.9,853.3,1088.6,854.7,1087,854.7z" transform="matrix(1, 0, 0, 1, 2.842170943040401e-14, 0)"/><path d="M 1128.800049 794.5 H 1186.00005 V 851.700001 H 1128.800049 V 794.5 Z" fill="#FF7269" transform="matrix(1, 0, 0, 1, 2.842170943040401e-14, 0)" style="fill: rgb(71, 142, 209);"/><path d="M1186,854.7h-57.2c-1.6,0-2.9-1.3-2.9-2.9v-57.2c0-1.6,1.3-2.9,2.9-2.9h57.2c1.6,0,2.9,1.3,2.9,2.9v57.2&#10;&#9;&#9;&#9;C1189,853.3,1187.6,854.7,1186,854.7z M1131.7,848.8h51.4v-51.4h-51.4V848.8z" transform="matrix(1, 0, 0, 1, 2.842170943040401e-14, 0)"/><path d="M 336.700012 608.5 H 393.900013 V 665.700001 H 336.700012 V 608.5 Z" fill="#F1F2F2" transform="matrix(1, 0, 0, 1, 2.842170943040401e-14, 0)"/><path d="M393.9,668.7h-57.2c-1.6,0-2.9-1.3-2.9-2.9v-57.2c0-1.6,1.3-2.9,2.9-2.9h57.2c1.6,0,2.9,1.3,2.9,2.9v57.2&#10;&#9;&#9;&#9;C396.9,667.4,395.6,668.7,393.9,668.7z M339.7,662.8H391v-51.4h-51.4V662.8z" transform="matrix(1, 0, 0, 1, 2.842170943040401e-14, 0)"/><path d="M 336.700012 704 H 393.900013 V 761.200001 H 336.700012 V 704 Z" fill="#F1F2F2" transform="matrix(1, 0, 0, 1, 2.842170943040401e-14, 0)"/><path d="M393.9,764.1h-57.2c-1.6,0-2.9-1.3-2.9-2.9V704c0-1.6,1.3-2.9,2.9-2.9h57.2c1.6,0,2.9,1.3,2.9,2.9v57.2&#10;&#9;&#9;&#9;C396.9,762.8,395.6,764.1,393.9,764.1z M339.7,758.3H391v-51.4h-51.4V758.3z" transform="matrix(1, 0, 0, 1, 2.842170943040401e-14, 0)"/><g transform="matrix(1, 0, 0, 1, 2.842170943040401e-14, 0)">
			<path fill="#FFFFFF" d="M303.1,815.5c0,9.2-7.5,16.7-16.7,16.7H113.6c-9.2,0-16.7-7.5-16.7-16.7V478.4c0-9.2,7.5-16.7,16.7-16.7&#10;&#9;&#9;&#9;&#9;h172.8c9.2,0,16.7,7.5,16.7,16.7V815.5z"/>
			<path d="M286.4,835.2H113.6c-10.8,0-19.6-8.8-19.6-19.6V478.4c0-10.8,8.8-19.6,19.6-19.6h172.8c10.8,0,19.6,8.8,19.6,19.6v337.2&#10;&#9;&#9;&#9;&#9;C306,826.4,297.2,835.2,286.4,835.2z M113.6,464.6c-7.6,0-13.8,6.2-13.8,13.8v337.2c0,7.6,6.2,13.8,13.8,13.8h172.8&#10;&#9;&#9;&#9;&#9;c7.6,0,13.8-6.2,13.8-13.8V478.4c0-7.6-6.2-13.8-13.8-13.8H113.6z"/>
		</g><path d="M 113.599998 487.399994 H 286.400002 V 786.199982 H 113.599998 V 487.399994 Z" fill="#FFFFFF" transform="matrix(1, 0, 0, 1, 4.263256414560601e-14, 0)"/><path d="M286.4,789.2H113.6c-1.6,0-2.9-1.3-2.9-2.9V487.4c0-1.6,1.3-2.9,2.9-2.9h172.8c1.6,0,2.9,1.3,2.9,2.9v298.8&#10;&#9;&#9;&#9;&#9;C289.3,787.9,288,789.2,286.4,789.2z M116.5,783.3h166.9v-293H116.5V783.3z" transform="matrix(1, 0, 0, 1, 4.263256414560601e-14, 0)"/><path d="M 127.199997 808.900024 L 189.899994 808.900024" fill="#FFFFFF" transform="matrix(1, 0, 0, 1, 4.263256414560601e-14, 0)"/><path d="M189.9,811.8h-62.7c-1.6,0-2.9-1.3-2.9-2.9s1.3-2.9,2.9-2.9h62.7c1.6,0,2.9,1.3,2.9,2.9S191.6,811.8,189.9,811.8z" transform="matrix(1, 0, 0, 1, 4.263256414560601e-14, 0)"/><path d="M 210.100006 808.900024 L 272.700012 808.900024" fill="#FFFFFF" transform="matrix(1, 0, 0, 1, 4.263256414560601e-14, 0)"/><path d="M272.7,811.8h-62.7c-1.6,0-2.9-1.3-2.9-2.9s1.3-2.9,2.9-2.9h62.7c1.6,0,2.9,1.3,2.9,2.9S274.4,811.8,272.7,811.8z" transform="matrix(1, 0, 0, 1, 4.263256414560601e-14, 0)"/><path d="M 130.100006 503.899994 H 206.400009 V 580.199997 H 130.100006 V 503.899994 Z" fill="#FF7269" transform="matrix(1, 0, 0, 1, 4.263256414560601e-14, 0)" style="fill: rgb(71, 142, 209);"/><path d="M206.4,583.2h-76.3c-1.6,0-2.9-1.3-2.9-2.9v-76.3c0-1.6,1.3-2.9,2.9-2.9h76.3c1.6,0,2.9,1.3,2.9,2.9v76.3&#10;&#9;&#9;&#9;&#9;C209.3,581.9,208,583.2,206.4,583.2z M133,577.3h70.5v-70.5H133V577.3z" transform="matrix(1, 0, 0, 1, 4.263256414560601e-14, 0)"/><path d="M 226.699997 537 H 269.899998 V 580.200001 H 226.699997 V 537 Z" fill="#FF7269" transform="matrix(1, 0, 0, 1, 4.263256414560601e-14, 0)" style="fill: rgb(71, 142, 209);"/><path d="M269.9,583.2h-43.2c-1.6,0-2.9-1.3-2.9-2.9V537c0-1.6,1.3-2.9,2.9-2.9h43.2c1.6,0,2.9,1.3,2.9,2.9v43.2&#10;&#9;&#9;&#9;&#9;C272.9,581.9,271.5,583.2,269.9,583.2z M229.6,577.3H267V540h-37.4V577.3z" transform="matrix(1, 0, 0, 1, 4.263256414560601e-14, 0)"/><path d="M 176.5 598.400024 H 269.900002 V 618.800024 H 176.5 V 598.400024 Z" fill="#F1F2F2" transform="matrix(1, 0, 0, 1, 4.263256414560601e-14, 0)"/><path d="M269.9,621.7h-93.4c-1.6,0-2.9-1.3-2.9-2.9v-20.4c0-1.6,1.3-2.9,2.9-2.9h93.4c1.6,0,2.9,1.3,2.9,2.9v20.4&#10;&#9;&#9;&#9;&#9;C272.9,620.3,271.5,621.7,269.9,621.7z M179.4,615.8H267v-14.5h-87.6V615.8z" transform="matrix(1, 0, 0, 1, 4.263256414560601e-14, 0)"/><path d="M 129.800003 636.799988 H 176.500004 V 657.199987 H 129.800003 V 636.799988 Z" fill="#F1F2F2" transform="matrix(1, 0, 0, 1, 4.263256414560601e-14, 0)"/><path d="M176.5,660.1h-46.7c-1.6,0-2.9-1.3-2.9-2.9v-20.4c0-1.6,1.3-2.9,2.9-2.9h46.7c1.6,0,2.9,1.3,2.9,2.9v20.4&#10;&#9;&#9;&#9;&#9;C179.4,658.7,178.1,660.1,176.5,660.1z M132.7,654.2h40.9v-14.5h-40.9V654.2z" transform="matrix(1, 0, 0, 1, 4.263256414560601e-14, 0)"/><path d="M 237.100006 675.200012 H 269.900005 V 695.600012 H 237.100006 V 675.200012 Z" fill="#F1F2F2" transform="matrix(1, 0, 0, 1, 4.263256414560601e-14, 0)"/><path d="M269.9,698.5h-32.8c-1.6,0-2.9-1.3-2.9-2.9v-20.4c0-1.6,1.3-2.9,2.9-2.9h32.8c1.6,0,2.9,1.3,2.9,2.9v20.4&#10;&#9;&#9;&#9;&#9;C272.9,697.1,271.5,698.5,269.9,698.5z M240,692.6h27v-14.5h-27V692.6z" transform="matrix(1, 0, 0, 1, 4.263256414560601e-14, 0)"/><path d="M 129.800003 675.200012 H 215 V 695.600012 H 129.800003 V 675.200012 Z" fill="#F1F2F2" transform="matrix(1, 0, 0, 1, 4.263256414560601e-14, 0)"/><path d="M215,698.5h-85.2c-1.6,0-2.9-1.3-2.9-2.9v-20.4c0-1.6,1.3-2.9,2.9-2.9H215c1.6,0,2.9,1.3,2.9,2.9v20.4&#10;&#9;&#9;&#9;&#9;C217.9,697.1,216.6,698.5,215,698.5z M132.7,692.6H212v-14.5h-79.4V692.6z" transform="matrix(1, 0, 0, 1, 4.263256414560601e-14, 0)"/><path d="M 129.800003 713.599976 H 237.100006 V 733.999975 H 129.800003 V 713.599976 Z" fill="#F1F2F2" transform="matrix(1, 0, 0, 1, 4.263256414560601e-14, 0)"/><path d="M237.1,736.9H129.8c-1.6,0-2.9-1.3-2.9-2.9v-20.4c0-1.6,1.3-2.9,2.9-2.9h107.3c1.6,0,2.9,1.3,2.9,2.9v20.4&#10;&#9;&#9;&#9;&#9;C240,735.5,238.7,736.9,237.1,736.9z M132.7,731h101.5v-14.5H132.7V731z" transform="matrix(1, 0, 0, 1, 4.263256414560601e-14, 0)"/><path d="M 129.800003 752 H 179.900002 V 772.4 H 129.800003 V 752 Z" fill="#F1F2F2" transform="matrix(1, 0, 0, 1, 4.263256414560601e-14, 0)"/><path d="M179.9,775.3h-50.1c-1.6,0-2.9-1.3-2.9-2.9V752c0-1.6,1.3-2.9,2.9-2.9h50.1c1.6,0,2.9,1.3,2.9,2.9v20.4&#10;&#9;&#9;&#9;&#9;C182.8,773.9,181.5,775.3,179.9,775.3z M132.7,769.4H177v-14.5h-44.3V769.4z" transform="matrix(1, 0, 0, 1, 4.263256414560601e-14, 0)"/><path d="M365.3,891.3H253.5c-1.6,0-2.9-1.3-2.9-2.9c0-1.6,1.3-2.9,2.9-2.9h111.8c1.6,0,2.9,1.3,2.9,2.9&#10;&#9;&#9;&#9;C368.3,890,367,891.3,365.3,891.3z" transform="matrix(1, 0, 0, 1, 2.842170943040401e-14, 0)"/><path d="M215,891.3h-42.6c-1.6,0-2.9-1.3-2.9-2.9c0-1.6,1.3-2.9,2.9-2.9H215c1.6,0,2.9,1.3,2.9,2.9&#10;&#9;&#9;&#9;C217.9,890,216.6,891.3,215,891.3z" transform="matrix(1, 0, 0, 1, 2.842170943040401e-14, 0)"/><path fill="#FF7269" d="M359.6,161.9c0,11-8.9,19.9-19.9,19.9c-11,0-19.9-8.9-19.9-19.9c0-11,8.9-19.9,19.9-19.9&#10;&#9;&#9;&#9;C350.7,142.1,359.6,151,359.6,161.9z" transform="matrix(1, 0, 0, 1, 2.842170943040401e-14, 0)" style="fill: rgb(71, 142, 209);"/><path d="M339.7,184.7c-12.6,0-22.8-10.2-22.8-22.8c0-12.6,10.2-22.8,22.8-22.8c12.6,0,22.8,10.2,22.8,22.8&#10;&#9;&#9;&#9;C362.5,174.5,352.3,184.7,339.7,184.7z M339.7,145c-9.3,0-16.9,7.6-16.9,16.9c0,9.3,7.6,16.9,16.9,16.9c9.3,0,16.9-7.6,16.9-16.9&#10;&#9;&#9;&#9;C356.7,152.6,349.1,145,339.7,145z" transform="matrix(1, 0, 0, 1, 2.842170943040401e-14, 0)"/><path fill="#FF7269" d="M428.8,161.9c0,11-8.9,19.9-19.9,19.9c-11,0-19.9-8.9-19.9-19.9c0-11,8.9-19.9,19.9-19.9&#10;&#9;&#9;&#9;C419.9,142.1,428.8,151,428.8,161.9z" transform="matrix(1, 0, 0, 1, 2.842170943040401e-14, 0)" style="fill: rgb(71, 142, 209);"/><path d="M408.9,184.7c-12.6,0-22.8-10.2-22.8-22.8c0-12.6,10.2-22.8,22.8-22.8c12.6,0,22.8,10.2,22.8,22.8&#10;&#9;&#9;&#9;C431.7,174.5,421.5,184.7,408.9,184.7z M408.9,145c-9.3,0-16.9,7.6-16.9,16.9c0,9.3,7.6,16.9,16.9,16.9s16.9-7.6,16.9-16.9&#10;&#9;&#9;&#9;C425.9,152.6,418.3,145,408.9,145z" transform="matrix(1, 0, 0, 1, 2.842170943040401e-14, 0)"/><path fill="#FF7269" d="M498,161.9c0,11-8.9,19.9-19.9,19.9c-11,0-19.9-8.9-19.9-19.9c0-11,8.9-19.9,19.9-19.9&#10;&#9;&#9;&#9;C489.1,142.1,498,151,498,161.9z" transform="matrix(1, 0, 0, 1, 2.842170943040401e-14, 0)" style="fill: rgb(71, 142, 209);"/><path d="M478.1,184.7c-12.6,0-22.8-10.2-22.8-22.8c0-12.6,10.2-22.8,22.8-22.8s22.8,10.2,22.8,22.8&#10;&#9;&#9;&#9;C500.9,174.5,490.7,184.7,478.1,184.7z M478.1,145c-9.3,0-16.9,7.6-16.9,16.9c0,9.3,7.6,16.9,16.9,16.9s16.9-7.6,16.9-16.9&#10;&#9;&#9;&#9;C495.1,152.6,487.5,145,478.1,145z" transform="matrix(1, 0, 0, 1, 2.842170943040401e-14, 0)"/>
</svg>